STARTFONT 2.1
FONT -JDECW-Gothic-Medium-R-Normal--18-180-75-75-M-90-JISX0201.1976-0
SIZE 18 75 75
FONTBOUNDINGBOX 10 20 0 -4

STARTPROPERTIES 26
FONTNAME_REGISTRY ""
FAMILY_NAME "Gothic"
FOUNDRY "JDECW"
WEIGHT_NAME "Medium"
SLANT "R"
SETWIDTH_NAME "Normal"
ADD_STYLE_NAME ""
PIXEL_SIZE 18
POINT_SIZE 180
RESOLUTION_X 75
RESOLUTION_Y 75
SPACING "M"
AVERAGE_WIDTH 90
CHARSET_REGISTRY "JISX0201.1976"
CHARSET_ENCODING "0"
DEVICE_FONT_NAME "Gothic-JISX0201.1976-0"
CHARSET_COLLECTIONS "JISX0201.1976 0"
FULL_NAME "Gothic-JISX0201.1976-0"
COPYRIGHT "Copyright (c) 1990 1991 TYPEBANK, Digital Equipment Corporation Japan"
CAP_HEIGHT 14
X_HEIGHT 9
WEIGHT 10
QUAD_WIDTH 10
DEFAULT_CHAR 32
FONT_DESCENT 4
FONT_ASCENT 16
ENDPROPERTIES

CHARS 158

STARTCHAR C20
ENCODING 32
SWIDTH 1000 0
DWIDTH 10 0
BBX 10 20 0 -4
BITMAP
0000
0000
0000
0000
0000
0000
0000
0000
0000
0000
0000
0000
0000
0000
0000
0000
0000
0000
0000
0000
ENDCHAR

STARTCHAR C21
ENCODING 33
SWIDTH 1000 0
DWIDTH 10 0
BBX 10 20 0 -4
BITMAP
0000
3800
3800
3800
3800
3800
3800
3800
3800
1000
1000
1000
1000
0000
0000
1000
1000
1000
0000
0000
ENDCHAR

STARTCHAR C22
ENCODING 34
SWIDTH 1000 0
DWIDTH 10 0
BBX 10 20 0 -4
BITMAP
0000
EE00
2200
6600
CC00
0000
0000
0000
0000
0000
0000
0000
0000
0000
0000
0000
0000
0000
0000
0000
ENDCHAR

STARTCHAR C23
ENCODING 35
SWIDTH 1000 0
DWIDTH 10 0
BBX 10 20 0 -4
BITMAP
0000
1200
1200
1200
1200
7F80
2400
2400
2400
2400
2400
2400
FF00
2800
2800
2800
2800
2800
0000
0000
ENDCHAR

STARTCHAR C24
ENCODING 36
SWIDTH 1000 0
DWIDTH 10 0
BBX 10 20 0 -4
BITMAP
0000
1000
3C00
5200
9100
9100
9000
5000
3000
1800
1400
1200
1100
9100
5200
3C00
1000
1000
0000
0000
ENDCHAR

STARTCHAR C25
ENCODING 37
SWIDTH 1000 0
DWIDTH 10 0
BBX 10 20 0 -4
BITMAP
0000
0100
C100
A200
A200
A400
A400
A800
C800
1000
2600
2900
4900
4900
8900
8900
8600
8000
0000
0000
ENDCHAR

STARTCHAR C26
ENCODING 38
SWIDTH 1000 0
DWIDTH 10 0
BBX 10 20 0 -4
BITMAP
0000
3000
4800
4400
4400
4400
4800
5000
2000
5000
5200
8A00
8400
8400
4A00
7100
0000
0000
0000
0000
ENDCHAR

STARTCHAR C27
ENCODING 39
SWIDTH 1000 0
DWIDTH 10 0
BBX 10 20 0 -4
BITMAP
0000
E000
2000
6000
C000
0000
0000
0000
0000
0000
0000
0000
0000
0000
0000
0000
0000
0000
0000
0000
ENDCHAR

STARTCHAR C28
ENCODING 40
SWIDTH 1000 0
DWIDTH 10 0
BBX 10 20 0 -4
BITMAP
0000
0100
0200
0400
0800
0800
0800
1000
1000
1000
1000
1000
0800
0800
0800
0400
0400
0200
0100
0000
ENDCHAR

STARTCHAR C29
ENCODING 41
SWIDTH 1000 0
DWIDTH 10 0
BBX 10 20 0 -4
BITMAP
0000
8000
4000
2000
1000
1000
1000
0800
0800
0800
0800
0800
1000
1000
1000
2000
2000
4000
8000
0000
ENDCHAR

STARTCHAR C2a
ENCODING 42
SWIDTH 1000 0
DWIDTH 10 0
BBX 10 20 0 -4
BITMAP
0000
0000
0000
1000
1800
5200
D300
7600
1800
1000
1800
7600
D300
5200
1800
1000
0000
0000
0000
0000
ENDCHAR

STARTCHAR C2b
ENCODING 43
SWIDTH 1000 0
DWIDTH 10 0
BBX 10 20 0 -4
BITMAP
0000
0000
0000
1000
1000
1000
1000
1000
1000
FF00
1000
1000
1000
1000
1000
0000
0000
0000
0000
0000
ENDCHAR

STARTCHAR C2c
ENCODING 44
SWIDTH 1000 0
DWIDTH 10 0
BBX 10 20 0 -4
BITMAP
0000
0000
0000
0000
0000
0000
0000
0000
0000
0000
0000
0000
0000
0000
E000
E000
6000
C000
8000
0000
ENDCHAR

STARTCHAR C2d
ENCODING 45
SWIDTH 1000 0
DWIDTH 10 0
BBX 10 20 0 -4
BITMAP
0000
0000
0000
0000
0000
0000
0000
0000
0000
FF80
0000
0000
0000
0000
0000
0000
0000
0000
0000
0000
ENDCHAR

STARTCHAR C2e
ENCODING 46
SWIDTH 1000 0
DWIDTH 10 0
BBX 10 20 0 -4
BITMAP
0000
0000
0000
0000
0000
0000
0000
0000
0000
0000
0000
0000
0000
0000
0000
C000
C000
C000
0000
0000
ENDCHAR

STARTCHAR C2f
ENCODING 47
SWIDTH 1000 0
DWIDTH 10 0
BBX 10 20 0 -4
BITMAP
0000
0080
0100
0100
0200
0200
0400
0400
0800
0800
1000
2000
2000
4000
4000
8000
8000
8000
8000
0000
ENDCHAR

STARTCHAR C30
ENCODING 48
SWIDTH 1000 0
DWIDTH 10 0
BBX 10 20 0 -4
BITMAP
0000
0000
3800
4400
4400
8200
8200
8200
8200
8200
8200
8200
8200
4400
4400
3800
0000
0000
0000
0000
ENDCHAR

STARTCHAR C31
ENCODING 49
SWIDTH 1000 0
DWIDTH 10 0
BBX 10 20 0 -4
BITMAP
0000
0000
1800
2800
4800
0800
0800
0800
0800
0800
0800
0800
0800
0800
0800
0800
0000
0000
0000
0000
ENDCHAR

STARTCHAR C32
ENCODING 50
SWIDTH 1000 0
DWIDTH 10 0
BBX 10 20 0 -4
BITMAP
0000
0000
3800
4400
8200
8200
0200
0400
0400
0800
1000
2000
4000
8000
8000
FE00
0000
0000
0000
0000
ENDCHAR

STARTCHAR C33
ENCODING 51
SWIDTH 1000 0
DWIDTH 10 0
BBX 10 20 0 -4
BITMAP
0000
0000
3C00
4200
8100
8100
0100
0100
0200
3C00
0200
0100
8100
8100
4200
3C00
0000
0000
0000
0000
ENDCHAR

STARTCHAR C34
ENCODING 52
SWIDTH 1000 0
DWIDTH 10 0
BBX 10 20 0 -4
BITMAP
0000
0000
0400
0C00
0C00
1400
1400
2400
2400
4400
8400
FF00
0400
0400
0400
0400
0000
0000
0000
0000
ENDCHAR

STARTCHAR C35
ENCODING 53
SWIDTH 1000 0
DWIDTH 10 0
BBX 10 20 0 -4
BITMAP
0000
0000
FE00
8000
8000
8000
8000
BC00
C200
8100
0100
0100
8100
8100
4200
3C00
0000
0000
0000
0000
ENDCHAR

STARTCHAR C36
ENCODING 54
SWIDTH 1000 0
DWIDTH 10 0
BBX 10 20 0 -4
BITMAP
0000
0000
3C00
4200
8100
8100
8000
8000
BC00
C200
8100
8100
8100
8100
4200
3C00
0000
0000
0000
0000
ENDCHAR

STARTCHAR C37
ENCODING 55
SWIDTH 1000 0
DWIDTH 10 0
BBX 10 20 0 -4
BITMAP
0000
0000
FF00
0100
0100
0200
0200
0400
0400
0400
0800
0800
1000
1000
1000
1000
0000
0000
0000
0000
ENDCHAR

STARTCHAR C38
ENCODING 56
SWIDTH 1000 0
DWIDTH 10 0
BBX 10 20 0 -4
BITMAP
0000
0000
3C00
4200
8100
8100
8100
8100
4200
3C00
4200
8100
8100
8100
4200
3C00
0000
0000
0000
0000
ENDCHAR

STARTCHAR C39
ENCODING 57
SWIDTH 1000 0
DWIDTH 10 0
BBX 10 20 0 -4
BITMAP
0000
0000
3C00
4200
8100
8100
8100
8100
8100
4300
3D00
0100
8100
8100
4200
3C00
0000
0000
0000
0000
ENDCHAR

STARTCHAR C3a
ENCODING 58
SWIDTH 1000 0
DWIDTH 10 0
BBX 10 20 0 -4
BITMAP
0000
0000
0000
0000
0000
0000
0000
3800
3800
3800
0000
0000
0000
3800
3800
3800
0000
0000
0000
0000
ENDCHAR

STARTCHAR C3b
ENCODING 59
SWIDTH 1000 0
DWIDTH 10 0
BBX 10 20 0 -4
BITMAP
0000
0000
0000
0000
0000
0000
0000
3800
3800
3800
0000
0000
0000
3800
3800
3800
0800
1800
3000
0000
ENDCHAR

STARTCHAR C3c
ENCODING 60
SWIDTH 1000 0
DWIDTH 10 0
BBX 10 20 0 -4
BITMAP
0000
0180
0200
0400
0800
1000
2000
4000
8000
8000
8000
4000
2000
1000
0800
0400
0200
0100
0080
0000
ENDCHAR

STARTCHAR C3d
ENCODING 61
SWIDTH 1000 0
DWIDTH 10 0
BBX 10 20 0 -4
BITMAP
0000
0000
0000
0000
0000
0000
0000
FF00
0000
0000
FF00
0000
0000
0000
0000
0000
0000
0000
0000
0000
ENDCHAR

STARTCHAR C3e
ENCODING 62
SWIDTH 1000 0
DWIDTH 10 0
BBX 10 20 0 -4
BITMAP
0000
8000
4000
2000
1000
0800
0400
0200
0100
0080
0100
0200
0400
0800
1000
2000
4000
8000
8000
0000
ENDCHAR

STARTCHAR C3f
ENCODING 63
SWIDTH 1000 0
DWIDTH 10 0
BBX 10 20 0 -4
BITMAP
0000
3C00
4200
8100
8100
8100
0200
0200
0400
0800
1000
1000
1000
0000
0000
1000
1000
1000
0000
0000
ENDCHAR

STARTCHAR C40
ENCODING 64
SWIDTH 1000 0
DWIDTH 10 0
BBX 10 20 0 -4
BITMAP
0000
0000
1C00
2200
4100
4D00
9480
9480
A480
A480
A500
A500
5E00
4000
2100
1E00
0000
0000
0000
0000
ENDCHAR

STARTCHAR C41
ENCODING 65
SWIDTH 1000 0
DWIDTH 10 0
BBX 10 20 0 -4
BITMAP
0000
0000
1000
1000
2800
2800
2800
4400
4400
4400
4200
7E00
4200
8100
8100
8100
0000
0000
0000
0000
ENDCHAR

STARTCHAR C42
ENCODING 66
SWIDTH 1000 0
DWIDTH 10 0
BBX 10 20 0 -4
BITMAP
0000
0000
F800
8400
8200
8200
8200
8400
F800
8400
8200
8100
8100
8100
8200
FC00
0000
0000
0000
0000
ENDCHAR

STARTCHAR C43
ENCODING 67
SWIDTH 1000 0
DWIDTH 10 0
BBX 10 20 0 -4
BITMAP
0000
0000
1C00
2200
4100
4100
8000
8000
8000
8000
8000
8000
4100
4100
2200
1C00
0000
0000
0000
0000
ENDCHAR

STARTCHAR C44
ENCODING 68
SWIDTH 1000 0
DWIDTH 10 0
BBX 10 20 0 -4
BITMAP
0000
0000
F000
8C00
8200
8200
8100
8100
8100
8100
8100
8100
8200
8200
8C00
F000
0000
0000
0000
0000
ENDCHAR

STARTCHAR C45
ENCODING 69
SWIDTH 1000 0
DWIDTH 10 0
BBX 10 20 0 -4
BITMAP
0000
0000
FF00
8000
8000
8000
8000
8000
8000
FE00
8000
8000
8000
8000
8000
FF00
0000
0000
0000
0000
ENDCHAR

STARTCHAR C46
ENCODING 70
SWIDTH 1000 0
DWIDTH 10 0
BBX 10 20 0 -4
BITMAP
0000
0000
FF00
8000
8000
8000
8000
8000
8000
FE00
8000
8000
8000
8000
8000
8000
0000
0000
0000
0000
ENDCHAR

STARTCHAR C47
ENCODING 71
SWIDTH 1000 0
DWIDTH 10 0
BBX 10 20 0 -4
BITMAP
0000
0000
1C00
2200
4100
4100
8000
8000
8000
8000
8F00
8100
4100
4100
2300
1D00
0000
0000
0000
0000
ENDCHAR

STARTCHAR C48
ENCODING 72
SWIDTH 1000 0
DWIDTH 10 0
BBX 10 20 0 -4
BITMAP
0000
0000
8100
8100
8100
8100
8100
8100
8100
FF00
8100
8100
8100
8100
8100
8100
0000
0000
0000
0000
ENDCHAR

STARTCHAR C49
ENCODING 73
SWIDTH 1000 0
DWIDTH 10 0
BBX 10 20 0 -4
BITMAP
0000
0000
1000
1000
1000
1000
1000
1000
1000
1000
1000
1000
1000
1000
1000
1000
0000
0000
0000
0000
ENDCHAR

STARTCHAR C4a
ENCODING 74
SWIDTH 1000 0
DWIDTH 10 0
BBX 10 20 0 -4
BITMAP
0000
0000
0200
0200
0200
0200
0200
0200
0200
0200
0200
0200
8200
8200
4400
3800
0000
0000
0000
0000
ENDCHAR

STARTCHAR C4b
ENCODING 75
SWIDTH 1000 0
DWIDTH 10 0
BBX 10 20 0 -4
BITMAP
0000
0000
8200
8400
8400
8800
9000
9000
A000
D000
9000
8800
8400
8200
8100
8100
0000
0000
0000
0000
ENDCHAR

STARTCHAR C4c
ENCODING 76
SWIDTH 1000 0
DWIDTH 10 0
BBX 10 20 0 -4
BITMAP
0000
0000
8000
8000
8000
8000
8000
8000
8000
8000
8000
8000
8000
8000
8000
FF00
0000
0000
0000
0000
ENDCHAR

STARTCHAR C4d
ENCODING 77
SWIDTH 1000 0
DWIDTH 10 0
BBX 10 20 0 -4
BITMAP
0000
0000
8100
8100
8300
8300
C500
C500
C500
A900
A900
9100
9100
9100
8100
8100
0000
0000
0000
0000
ENDCHAR

STARTCHAR C4e
ENCODING 78
SWIDTH 1000 0
DWIDTH 10 0
BBX 10 20 0 -4
BITMAP
0000
0000
8100
C100
C100
A100
A100
9100
9100
8900
8900
8500
8500
8300
8300
8100
0000
0000
0000
0000
ENDCHAR

STARTCHAR C4f
ENCODING 79
SWIDTH 1000 0
DWIDTH 10 0
BBX 10 20 0 -4
BITMAP
0000
0000
1800
2400
4200
4200
8100
8100
8100
8100
8100
8100
4200
4200
2400
1800
0000
0000
0000
0000
ENDCHAR

STARTCHAR C50
ENCODING 80
SWIDTH 1000 0
DWIDTH 10 0
BBX 10 20 0 -4
BITMAP
0000
0000
FC00
8200
8100
8100
8100
8100
8200
FC00
8000
8000
8000
8000
8000
8000
0000
0000
0000
0000
ENDCHAR

STARTCHAR C51
ENCODING 81
SWIDTH 1000 0
DWIDTH 10 0
BBX 10 20 0 -4
BITMAP
0000
0000
1C00
2200
4100
4100
8100
8100
8100
8100
8100
8100
4900
4500
2200
1D00
0100
0000
0000
0000
ENDCHAR

STARTCHAR C52
ENCODING 82
SWIDTH 1000 0
DWIDTH 10 0
BBX 10 20 0 -4
BITMAP
0000
0000
FC00
8200
8100
8100
8100
8100
8200
FC00
8800
8400
8200
8200
8100
8100
0000
0000
0000
0000
ENDCHAR

STARTCHAR C53
ENCODING 83
SWIDTH 1000 0
DWIDTH 10 0
BBX 10 20 0 -4
BITMAP
0000
0000
3C00
4200
8100
8100
8000
4000
3000
0C00
0200
0100
8100
8100
4200
3C00
0000
0000
0000
0000
ENDCHAR

STARTCHAR C54
ENCODING 84
SWIDTH 1000 0
DWIDTH 10 0
BBX 10 20 0 -4
BITMAP
0000
0000
FF00
1000
1000
1000
1000
1000
1000
1000
1000
1000
1000
1000
1000
1000
0000
0000
0000
0000
ENDCHAR

STARTCHAR C55
ENCODING 85
SWIDTH 1000 0
DWIDTH 10 0
BBX 10 20 0 -4
BITMAP
0000
0000
8100
8100
8100
8100
8100
8100
8100
8100
8100
8100
8100
4200
4200
3C00
0000
0000
0000
0000
ENDCHAR

STARTCHAR C56
ENCODING 86
SWIDTH 1000 0
DWIDTH 10 0
BBX 10 20 0 -4
BITMAP
0000
0000
8100
8100
8100
8200
8200
8200
4400
4400
2800
2800
2800
1000
1000
1000
0000
0000
0000
0000
ENDCHAR

STARTCHAR C57
ENCODING 87
SWIDTH 1000 0
DWIDTH 10 0
BBX 10 20 0 -4
BITMAP
0000
0000
9100
9100
9100
9100
9100
A900
AA00
AA00
AA00
AA00
4400
4400
4400
4400
0000
0000
0000
0000
ENDCHAR

STARTCHAR C58
ENCODING 88
SWIDTH 1000 0
DWIDTH 10 0
BBX 10 20 0 -4
BITMAP
0000
0000
4200
4200
4400
4400
4400
2800
2800
1000
2800
4400
4200
4200
8100
8100
0000
0000
0000
0000
ENDCHAR

STARTCHAR C59
ENCODING 89
SWIDTH 1000 0
DWIDTH 10 0
BBX 10 20 0 -4
BITMAP
0000
0000
8100
8100
4200
4200
2400
2400
1800
1800
1000
1000
1000
1000
1000
1000
0000
0000
0000
0000
ENDCHAR

STARTCHAR C5a
ENCODING 90
SWIDTH 1000 0
DWIDTH 10 0
BBX 10 20 0 -4
BITMAP
0000
0000
FE00
0400
0400
0800
0800
1000
1000
2000
4000
4000
4000
4000
8000
FF00
0000
0000
0000
0000
ENDCHAR

STARTCHAR C5b
ENCODING 91
SWIDTH 1000 0
DWIDTH 10 0
BBX 10 20 0 -4
BITMAP
0000
0700
0400
0400
0400
0400
0400
0400
0400
0400
0400
0400
0400
0400
0400
0400
0400
0400
0700
0000
ENDCHAR

STARTCHAR C5c
ENCODING 92
SWIDTH 1000 0
DWIDTH 10 0
BBX 10 20 0 -4
BITMAP
0000
0000
8100
4200
4200
2400
2400
1800
FF00
1000
FF00
1000
1000
1000
1000
1000
0000
0000
0000
0000
ENDCHAR

STARTCHAR C5d
ENCODING 93
SWIDTH 1000 0
DWIDTH 10 0
BBX 10 20 0 -4
BITMAP
0000
E000
2000
2000
2000
2000
2000
2000
2000
2000
2000
2000
2000
2000
2000
2000
2000
2000
E000
0000
ENDCHAR

STARTCHAR C5e
ENCODING 94
SWIDTH 1000 0
DWIDTH 10 0
BBX 10 20 0 -4
BITMAP
0000
1800
6600
0000
0000
0000
0000
0000
0000
0000
0000
0000
0000
0000
0000
0000
0000
0000
0000
0000
ENDCHAR

STARTCHAR C5f
ENCODING 95
SWIDTH 1000 0
DWIDTH 10 0
BBX 10 20 0 -4
BITMAP
0000
0000
0000
0000
0000
0000
0000
0000
0000
0000
0000
0000
0000
0000
0000
0000
0000
0000
FF80
0000
ENDCHAR

STARTCHAR C60
ENCODING 96
SWIDTH 1000 0
DWIDTH 10 0
BBX 10 20 0 -4
BITMAP
0000
E000
8000
C000
6000
0000
0000
0000
0000
0000
0000
0000
0000
0000
0000
0000
0000
0000
0000
0000
ENDCHAR

STARTCHAR C61
ENCODING 97
SWIDTH 1000 0
DWIDTH 10 0
BBX 10 20 0 -4
BITMAP
0000
0000
0000
0000
0000
0000
0000
3C00
4200
4200
0200
1E00
6200
8200
8600
7B00
0000
0000
0000
0000
ENDCHAR

STARTCHAR C62
ENCODING 98
SWIDTH 1000 0
DWIDTH 10 0
BBX 10 20 0 -4
BITMAP
0000
0000
4000
4000
4000
4000
4000
5C00
6200
4100
4100
4100
4100
4100
6200
5C00
0000
0000
0000
0000
ENDCHAR

STARTCHAR C63
ENCODING 99
SWIDTH 1000 0
DWIDTH 10 0
BBX 10 20 0 -4
BITMAP
0000
0000
0000
0000
0000
0000
0000
3C00
4200
4100
8000
8000
8100
4100
4200
3C00
0000
0000
0000
0000
ENDCHAR

STARTCHAR C64
ENCODING 100
SWIDTH 1000 0
DWIDTH 10 0
BBX 10 20 0 -4
BITMAP
0000
0000
0200
0200
0200
0200
0200
3A00
4600
8200
8200
8200
8200
8200
4600
3A00
0000
0000
0000
0000
ENDCHAR

STARTCHAR C65
ENCODING 101
SWIDTH 1000 0
DWIDTH 10 0
BBX 10 20 0 -4
BITMAP
0000
0000
0000
0000
0000
0000
0000
3C00
4200
4200
8100
FF00
8000
4100
4200
3C00
0000
0000
0000
0000
ENDCHAR

STARTCHAR C66
ENCODING 102
SWIDTH 1000 0
DWIDTH 10 0
BBX 10 20 0 -4
BITMAP
0000
0000
0E00
1000
1000
1000
1000
FE00
1000
1000
1000
1000
1000
1000
1000
1000
0000
0000
0000
0000
ENDCHAR

STARTCHAR C67
ENCODING 103
SWIDTH 1000 0
DWIDTH 10 0
BBX 10 20 0 -4
BITMAP
0000
0000
0000
0000
0000
0000
0000
3D00
4300
8100
8100
8100
4300
3D00
0100
0100
8100
4200
3C00
0000
ENDCHAR

STARTCHAR C68
ENCODING 104
SWIDTH 1000 0
DWIDTH 10 0
BBX 10 20 0 -4
BITMAP
0000
0000
8000
8000
8000
8000
8000
BC00
C200
8100
8100
8100
8100
8100
8100
8100
0000
0000
0000
0000
ENDCHAR

STARTCHAR C69
ENCODING 105
SWIDTH 1000 0
DWIDTH 10 0
BBX 10 20 0 -4
BITMAP
0000
0000
0000
1000
1000
0000
0000
1000
1000
1000
1000
1000
1000
1000
1000
1000
0000
0000
0000
0000
ENDCHAR

STARTCHAR C6a
ENCODING 106
SWIDTH 1000 0
DWIDTH 10 0
BBX 10 20 0 -4
BITMAP
0000
0000
0000
0400
0400
0000
0000
0400
0400
0400
0400
0400
0400
0400
0400
0400
0400
0800
7000
0000
ENDCHAR

STARTCHAR C6b
ENCODING 107
SWIDTH 1000 0
DWIDTH 10 0
BBX 10 20 0 -4
BITMAP
0000
0000
8000
8000
8000
8000
8000
8200
8400
8800
9000
A800
C800
8400
8200
8100
0000
0000
0000
0000
ENDCHAR

STARTCHAR C6c
ENCODING 108
SWIDTH 1000 0
DWIDTH 10 0
BBX 10 20 0 -4
BITMAP
0000
0000
1000
1000
1000
1000
1000
1000
1000
1000
1000
1000
1000
1000
1000
1000
0000
0000
0000
0000
ENDCHAR

STARTCHAR C6d
ENCODING 109
SWIDTH 1000 0
DWIDTH 10 0
BBX 10 20 0 -4
BITMAP
0000
0000
0000
0000
0000
0000
0000
A600
D900
9100
9100
9100
9100
9100
9100
9100
0000
0000
0000
0000
ENDCHAR

STARTCHAR C6e
ENCODING 110
SWIDTH 1000 0
DWIDTH 10 0
BBX 10 20 0 -4
BITMAP
0000
0000
0000
0000
0000
0000
0000
BC00
C200
8200
8200
8200
8200
8200
8200
8200
0000
0000
0000
0000
ENDCHAR

STARTCHAR C6f
ENCODING 111
SWIDTH 1000 0
DWIDTH 10 0
BBX 10 20 0 -4
BITMAP
0000
0000
0000
0000
0000
0000
0000
3C00
4200
4200
8100
8100
8100
4200
4200
3C00
0000
0000
0000
0000
ENDCHAR

STARTCHAR C70
ENCODING 112
SWIDTH 1000 0
DWIDTH 10 0
BBX 10 20 0 -4
BITMAP
0000
0000
0000
0000
0000
0000
0000
5C00
6200
4100
4100
4100
4100
4100
6200
5C00
4000
4000
4000
0000
ENDCHAR

STARTCHAR C71
ENCODING 113
SWIDTH 1000 0
DWIDTH 10 0
BBX 10 20 0 -4
BITMAP
0000
0000
0000
0000
0000
0000
0000
3A00
4600
8200
8200
8200
8200
8200
4600
3A00
0200
0200
0200
0000
ENDCHAR

STARTCHAR C72
ENCODING 114
SWIDTH 1000 0
DWIDTH 10 0
BBX 10 20 0 -4
BITMAP
0000
0000
0000
0000
0000
0000
0000
4600
5800
6000
4000
4000
4000
4000
4000
4000
0000
0000
0000
0000
ENDCHAR

STARTCHAR C73
ENCODING 115
SWIDTH 1000 0
DWIDTH 10 0
BBX 10 20 0 -4
BITMAP
0000
0000
0000
0000
0000
0000
0000
7800
8400
8400
8000
7000
0C00
0200
8200
7C00
0000
0000
0000
0000
ENDCHAR

STARTCHAR C74
ENCODING 116
SWIDTH 1000 0
DWIDTH 10 0
BBX 10 20 0 -4
BITMAP
0000
0000
0000
0000
1000
1000
1000
7E00
1000
1000
1000
1000
1000
1000
1000
0E00
0000
0000
0000
0000
ENDCHAR

STARTCHAR C75
ENCODING 117
SWIDTH 1000 0
DWIDTH 10 0
BBX 10 20 0 -4
BITMAP
0000
0000
0000
0000
0000
0000
0000
8200
8200
8200
8200
8200
8200
8200
4600
3A00
0000
0000
0000
0000
ENDCHAR

STARTCHAR C76
ENCODING 118
SWIDTH 1000 0
DWIDTH 10 0
BBX 10 20 0 -4
BITMAP
0000
0000
0000
0000
0000
0000
0000
8100
8100
8200
4400
4400
2800
2800
1000
1000
0000
0000
0000
0000
ENDCHAR

STARTCHAR C77
ENCODING 119
SWIDTH 1000 0
DWIDTH 10 0
BBX 10 20 0 -4
BITMAP
0000
0000
0000
0000
0000
0000
0000
9100
9100
9100
9200
AA00
AA00
4400
4400
4400
0000
0000
0000
0000
ENDCHAR

STARTCHAR C78
ENCODING 120
SWIDTH 1000 0
DWIDTH 10 0
BBX 10 20 0 -4
BITMAP
0000
0000
0000
0000
0000
0000
0000
4200
4400
4400
2800
1000
2800
4400
4200
8100
0000
0000
0000
0000
ENDCHAR

STARTCHAR C79
ENCODING 121
SWIDTH 1000 0
DWIDTH 10 0
BBX 10 20 0 -4
BITMAP
0000
0000
0000
0000
0000
0000
0000
8100
8100
4100
4200
2200
2400
1400
0800
0800
1000
1000
E000
0000
ENDCHAR

STARTCHAR C7a
ENCODING 122
SWIDTH 1000 0
DWIDTH 10 0
BBX 10 20 0 -4
BITMAP
0000
0000
0000
0000
0000
0000
0000
7F00
0200
0400
0800
1000
2000
2000
4000
FF00
0000
0000
0000
0000
ENDCHAR

STARTCHAR C7b
ENCODING 123
SWIDTH 1000 0
DWIDTH 10 0
BBX 10 20 0 -4
BITMAP
0000
0300
0400
0400
0400
0400
0400
0400
0800
1000
0800
0400
0400
0400
0400
0400
0400
0400
0300
0000
ENDCHAR

STARTCHAR C7c
ENCODING 124
SWIDTH 1000 0
DWIDTH 10 0
BBX 10 20 0 -4
BITMAP
0000
1000
1000
1000
1000
1000
1000
1000
1000
1000
1000
1000
1000
1000
1000
1000
1000
1000
1000
0000
ENDCHAR

STARTCHAR C7d
ENCODING 125
SWIDTH 1000 0
DWIDTH 10 0
BBX 10 20 0 -4
BITMAP
0000
C000
2000
2000
2000
2000
2000
2000
1000
0800
1000
2000
2000
2000
2000
2000
2000
2000
C000
0000
ENDCHAR

STARTCHAR C7e
ENCODING 126
SWIDTH 1000 0
DWIDTH 10 0
BBX 10 20 0 -4
BITMAP
0000
FF80
0000
0000
0000
0000
0000
0000
0000
0000
0000
0000
0000
0000
0000
0000
0000
0000
0000
0000
ENDCHAR

STARTCHAR Ca1
ENCODING 161
SWIDTH 1000 0
DWIDTH 10 0
BBX 10 20 0 -4
BITMAP
0000
0000
0000
0000
0000
0000
0000
0000
0000
0000
0000
0000
0000
0000
6000
9000
9000
9000
6000
0000
ENDCHAR

STARTCHAR Ca2
ENCODING 162
SWIDTH 1000 0
DWIDTH 10 0
BBX 10 20 0 -4
BITMAP
0000
0F00
0800
0800
0800
0800
0800
0800
0800
0800
0800
0800
0800
0800
0000
0000
0000
0000
0000
0000
ENDCHAR

STARTCHAR Ca3
ENCODING 163
SWIDTH 1000 0
DWIDTH 10 0
BBX 10 20 0 -4
BITMAP
0000
0000
0000
0000
0000
1000
1000
1000
1000
1000
1000
1000
1000
1000
1000
1000
1000
1000
F000
0000
ENDCHAR

STARTCHAR Ca4
ENCODING 164
SWIDTH 1000 0
DWIDTH 10 0
BBX 10 20 0 -4
BITMAP
0000
0000
0000
0000
0000
0000
0000
0000
0000
0000
0000
0000
0000
0000
8000
4000
2000
1000
1000
0000
ENDCHAR

STARTCHAR Ca5
ENCODING 165
SWIDTH 1000 0
DWIDTH 10 0
BBX 10 20 0 -4
BITMAP
0000
0000
0000
0000
0000
0000
0000
0000
3800
3800
0000
0000
0000
0000
0000
0000
0000
0000
0000
0000
ENDCHAR

STARTCHAR Ca6
ENCODING 166
SWIDTH 1000 0
DWIDTH 10 0
BBX 10 20 0 -4
BITMAP
0000
0000
0000
FE00
0200
0200
0200
0200
7E00
0200
0400
0400
0800
0800
1000
2000
4000
0000
0000
0000
ENDCHAR

STARTCHAR Ca7
ENCODING 167
SWIDTH 1000 0
DWIDTH 10 0
BBX 10 20 0 -4
BITMAP
0000
0000
0000
0000
0000
0000
0000
FF00
0100
0100
1200
1400
1000
1000
2000
2000
2000
4000
0000
0000
ENDCHAR

STARTCHAR Ca8
ENCODING 168
SWIDTH 1000 0
DWIDTH 10 0
BBX 10 20 0 -4
BITMAP
0000
0000
0000
0000
0000
0200
0200
0400
0400
0800
1800
2800
4800
8800
0800
0800
0800
0800
0000
0000
ENDCHAR

STARTCHAR Ca9
ENCODING 169
SWIDTH 1000 0
DWIDTH 10 0
BBX 10 20 0 -4
BITMAP
0000
0000
0000
0000
0000
1000
1000
1000
FE00
8200
8200
0200
0400
0400
0800
0800
1000
2000
0000
0000
ENDCHAR

STARTCHAR Caa
ENCODING 170
SWIDTH 1000 0
DWIDTH 10 0
BBX 10 20 0 -4
BITMAP
0000
0000
0000
0000
0000
0000
0000
0000
0000
7E00
1000
1000
1000
1000
1000
FF00
0000
0000
0000
0000
ENDCHAR

STARTCHAR Cab
ENCODING 171
SWIDTH 1000 0
DWIDTH 10 0
BBX 10 20 0 -4
BITMAP
0000
0000
0000
0000
0000
0400
0400
0400
0400
FF80
1400
2400
2400
4400
4400
8400
0400
1C00
0000
0000
ENDCHAR

STARTCHAR Cac
ENCODING 172
SWIDTH 1000 0
DWIDTH 10 0
BBX 10 20 0 -4
BITMAP
0000
0000
0000
0000
0000
0000
2000
2000
2700
1900
F200
1200
1400
1000
1000
1000
1000
1000
0000
0000
ENDCHAR

STARTCHAR Cad
ENCODING 173
SWIDTH 1000 0
DWIDTH 10 0
BBX 10 20 0 -4
BITMAP
0000
0000
0000
0000
0000
0000
0000
0000
0000
7C00
0400
0400
0400
0400
0400
FF00
0000
0000
0000
0000
ENDCHAR

STARTCHAR Cae
ENCODING 174
SWIDTH 1000 0
DWIDTH 10 0
BBX 10 20 0 -4
BITMAP
0000
0000
0000
0000
0000
0000
0000
0000
7E00
0200
0200
3E00
0200
0200
0200
7E00
0200
0000
0000
0000
ENDCHAR

STARTCHAR Caf
ENCODING 175
SWIDTH 1000 0
DWIDTH 10 0
BBX 10 20 0 -4
BITMAP
0000
0000
0000
0000
0000
0000
0000
1100
8900
4900
4100
0200
0200
0400
0400
0800
1000
2000
0000
0000
ENDCHAR

STARTCHAR Cb0
ENCODING 176
SWIDTH 1000 0
DWIDTH 10 0
BBX 10 20 0 -4
BITMAP
0000
0000
0000
0000
0000
0000
0000
0000
0000
FF00
0000
0000
0000
0000
0000
0000
0000
0000
0000
0000
ENDCHAR

STARTCHAR Cb1
ENCODING 177
SWIDTH 1000 0
DWIDTH 10 0
BBX 10 20 0 -4
BITMAP
0000
0000
0000
0000
FF00
0100
0100
1200
1200
1400
1000
1000
1000
1000
2000
2000
4000
0000
0000
0000
ENDCHAR

STARTCHAR Cb2
ENCODING 178
SWIDTH 1000 0
DWIDTH 10 0
BBX 10 20 0 -4
BITMAP
0000
0000
0200
0200
0200
0400
0400
0800
0800
1800
2800
4800
8800
0800
0800
0800
0800
0800
0000
0000
ENDCHAR

STARTCHAR Cb3
ENCODING 179
SWIDTH 1000 0
DWIDTH 10 0
BBX 10 20 0 -4
BITMAP
0000
0000
1000
1000
1000
FF00
8100
8100
8100
8100
0200
0200
0200
0400
0400
0800
1000
2000
0000
0000
ENDCHAR

STARTCHAR Cb4
ENCODING 180
SWIDTH 1000 0
DWIDTH 10 0
BBX 10 20 0 -4
BITMAP
0000
0000
0000
0000
0000
7E00
1000
1000
1000
1000
1000
1000
1000
1000
1000
FF00
0000
0000
0000
0000
ENDCHAR

STARTCHAR Cb5
ENCODING 181
SWIDTH 1000 0
DWIDTH 10 0
BBX 10 20 0 -4
BITMAP
0000
0000
0200
0200
0200
0200
7F00
0A00
0A00
0A00
1200
1200
2200
2200
4200
8200
0E00
0000
0000
0000
ENDCHAR

STARTCHAR Cb6
ENCODING 182
SWIDTH 1000 0
DWIDTH 10 0
BBX 10 20 0 -4
BITMAP
0000
0000
1000
1000
1000
1000
7F00
1100
1100
1100
1100
1100
1100
2100
2100
5A00
8600
0000
0000
0000
ENDCHAR

STARTCHAR Cb7
ENCODING 183
SWIDTH 1000 0
DWIDTH 10 0
BBX 10 20 0 -4
BITMAP
0000
0000
2000
2000
2000
1E00
7000
1000
1000
1000
0F80
F800
0800
0800
0400
0400
0400
0400
0000
0000
ENDCHAR

STARTCHAR Cb8
ENCODING 184
SWIDTH 1000 0
DWIDTH 10 0
BBX 10 20 0 -4
BITMAP
0000
0000
1000
1000
1000
1F00
2100
2100
4100
4200
8200
0200
0400
0800
0800
1000
2000
4000
0000
0000
ENDCHAR

STARTCHAR Cb9
ENCODING 185
SWIDTH 1000 0
DWIDTH 10 0
BBX 10 20 0 -4
BITMAP
0000
0000
1000
1000
1000
1000
3F80
2200
2200
4200
8200
0400
0400
0400
0800
0800
1000
2000
0000
0000
ENDCHAR

STARTCHAR Cba
ENCODING 186
SWIDTH 1000 0
DWIDTH 10 0
BBX 10 20 0 -4
BITMAP
0000
0000
0000
0000
FE00
0200
0200
0200
0200
0200
0200
0200
0200
0200
FE00
0200
0000
0000
0000
0000
ENDCHAR

STARTCHAR Cbb
ENCODING 187
SWIDTH 1000 0
DWIDTH 10 0
BBX 10 20 0 -4
BITMAP
0000
0000
0200
2200
2200
2200
FF00
2200
2200
2200
2200
0400
0400
0400
0800
0800
1000
2000
0000
0000
ENDCHAR

STARTCHAR Cbc
ENCODING 188
SWIDTH 1000 0
DWIDTH 10 0
BBX 10 20 0 -4
BITMAP
0000
0000
0000
4000
2000
1000
0000
8100
4100
4100
0200
0400
0400
0800
1000
2000
4000
0000
0000
0000
ENDCHAR

STARTCHAR Cbd
ENCODING 189
SWIDTH 1000 0
DWIDTH 10 0
BBX 10 20 0 -4
BITMAP
0000
0000
0000
0000
7C00
0400
0400
0400
0400
0400
0C00
0C00
1200
1200
2100
4100
8100
0000
0000
0000
ENDCHAR

STARTCHAR Cbe
ENCODING 190
SWIDTH 1000 0
DWIDTH 10 0
BBX 10 20 0 -4
BITMAP
0000
0000
2000
2000
2000
2000
2F00
F100
2200
2200
2400
2800
2000
2000
2000
2000
1F00
0000
0000
0000
ENDCHAR

STARTCHAR Cbf
ENCODING 191
SWIDTH 1000 0
DWIDTH 10 0
BBX 10 20 0 -4
BITMAP
0000
0000
0000
0100
8100
4100
4100
2100
2100
0200
0200
0400
0400
0800
0800
1000
2000
4000
0000
0000
ENDCHAR

STARTCHAR Cc0
ENCODING 192
SWIDTH 1000 0
DWIDTH 10 0
BBX 10 20 0 -4
BITMAP
0000
0000
1000
1000
1000
1F00
2100
2100
6100
5200
8A00
0A00
0400
0800
0800
1000
2000
4000
0000
0000
ENDCHAR

STARTCHAR Cc1
ENCODING 193
SWIDTH 1000 0
DWIDTH 10 0
BBX 10 20 0 -4
BITMAP
0000
0000
0200
0400
7800
0800
0800
0800
0800
FF00
0800
0800
0800
0800
1000
1000
2000
4000
0000
0000
ENDCHAR

STARTCHAR Cc2
ENCODING 194
SWIDTH 1000 0
DWIDTH 10 0
BBX 10 20 0 -4
BITMAP
0000
0000
0100
1100
0900
8900
4500
4500
2100
2100
0100
0100
0200
0200
0400
0800
1000
2000
0000
0000
ENDCHAR

STARTCHAR Cc3
ENCODING 195
SWIDTH 1000 0
DWIDTH 10 0
BBX 10 20 0 -4
BITMAP
0000
0000
0000
7E00
0000
0000
0000
0000
FF00
0800
0800
0800
0800
0800
1000
1000
2000
4000
0000
0000
ENDCHAR

STARTCHAR Cc4
ENCODING 196
SWIDTH 1000 0
DWIDTH 10 0
BBX 10 20 0 -4
BITMAP
0000
0000
2000
2000
2000
2000
2000
2000
3000
2C00
2200
2100
2000
2000
2000
2000
2000
2000
0000
0000
ENDCHAR

STARTCHAR Cc5
ENCODING 197
SWIDTH 1000 0
DWIDTH 10 0
BBX 10 20 0 -4
BITMAP
0000
0000
0800
0800
0800
0800
0800
FF00
0800
0800
0800
0800
0800
0800
1000
1000
2000
4000
0000
0000
ENDCHAR

STARTCHAR Cc6
ENCODING 198
SWIDTH 1000 0
DWIDTH 10 0
BBX 10 20 0 -4
BITMAP
0000
0000
0000
0000
7E00
0000
0000
0000
0000
0000
0000
0000
0000
0000
FF00
0000
0000
0000
0000
0000
ENDCHAR

STARTCHAR Cc7
ENCODING 199
SWIDTH 1000 0
DWIDTH 10 0
BBX 10 20 0 -4
BITMAP
0000
0000
0000
7F00
0100
0100
0100
0100
2200
1200
0A00
0400
0A00
0A00
1100
2100
4000
8000
0000
0000
ENDCHAR

STARTCHAR Cc8
ENCODING 200
SWIDTH 1000 0
DWIDTH 10 0
BBX 10 20 0 -4
BITMAP
0000
1000
1000
1000
0000
7C00
0400
0800
0800
1000
1400
3200
5100
9000
1000
1000
1000
1000
0000
0000
ENDCHAR

STARTCHAR Cc9
ENCODING 201
SWIDTH 1000 0
DWIDTH 10 0
BBX 10 20 0 -4
BITMAP
0000
0000
0000
0200
0200
0200
0200
0200
0400
0400
0800
0800
1000
1000
2000
4000
8000
0000
0000
0000
ENDCHAR

STARTCHAR Cca
ENCODING 202
SWIDTH 1000 0
DWIDTH 10 0
BBX 10 20 0 -4
BITMAP
0000
0000
0000
0000
1400
1400
1200
1200
1200
1100
2100
2080
2080
4080
4080
8000
0000
0000
0000
0000
ENDCHAR

STARTCHAR Ccb
ENCODING 203
SWIDTH 1000 0
DWIDTH 10 0
BBX 10 20 0 -4
BITMAP
0000
0000
8000
8000
8000
8000
8200
8400
9800
E000
8000
8000
8000
8000
8000
C000
3F00
0000
0000
0000
ENDCHAR

STARTCHAR Ccc
ENCODING 204
SWIDTH 1000 0
DWIDTH 10 0
BBX 10 20 0 -4
BITMAP
0000
0000
0000
0000
FF00
0100
0100
0100
0100
0200
0200
0400
0400
0800
0800
1000
2000
4000
0000
0000
ENDCHAR

STARTCHAR Ccd
ENCODING 205
SWIDTH 1000 0
DWIDTH 10 0
BBX 10 20 0 -4
BITMAP
0000
0000
0000
0000
2000
2000
5000
5000
5000
4800
4400
8400
8200
0200
0100
0100
0000
0000
0000
0000
ENDCHAR

STARTCHAR Cce
ENCODING 206
SWIDTH 1000 0
DWIDTH 10 0
BBX 10 20 0 -4
BITMAP
0000
0000
1000
1000
1000
1000
FF00
1000
1000
1000
5400
5200
5100
9100
9100
1000
1000
1000
0000
0000
ENDCHAR

STARTCHAR Ccf
ENCODING 207
SWIDTH 1000 0
DWIDTH 10 0
BBX 10 20 0 -4
BITMAP
0000
0000
0000
0000
FF00
0100
0100
0200
0200
0200
2400
1400
0800
0400
0400
0400
0000
0000
0000
0000
ENDCHAR

STARTCHAR Cd0
ENCODING 208
SWIDTH 1000 0
DWIDTH 10 0
BBX 10 20 0 -4
BITMAP
0000
0000
0000
6000
1800
0400
0000
0000
6000
1800
0400
0000
C000
3000
0800
0400
0200
0000
0000
0000
ENDCHAR

STARTCHAR Cd1
ENCODING 209
SWIDTH 1000 0
DWIDTH 10 0
BBX 10 20 0 -4
BITMAP
0000
0000
0000
0800
0800
0800
1000
1000
1000
1000
1400
1200
2100
2700
3880
E080
0000
0000
0000
0000
ENDCHAR

STARTCHAR Cd2
ENCODING 210
SWIDTH 1000 0
DWIDTH 10 0
BBX 10 20 0 -4
BITMAP
0000
0000
0000
0200
0200
0200
0200
0400
C400
3400
0800
0C00
0A00
1100
2000
2000
4000
8000
0000
0000
ENDCHAR

STARTCHAR Cd3
ENCODING 211
SWIDTH 1000 0
DWIDTH 10 0
BBX 10 20 0 -4
BITMAP
0000
0000
0000
7E00
2000
2000
2000
2000
2000
FF00
2000
2000
2000
2000
2000
2000
1F00
0000
0000
0000
ENDCHAR

STARTCHAR Cd4
ENCODING 212
SWIDTH 1000 0
DWIDTH 10 0
BBX 10 20 0 -4
BITMAP
0000
0000
2000
2000
2000
1300
1D00
3900
D100
0A00
0800
0800
0800
0800
0800
0800
0800
0800
0000
0000
ENDCHAR

STARTCHAR Cd5
ENCODING 213
SWIDTH 1000 0
DWIDTH 10 0
BBX 10 20 0 -4
BITMAP
0000
0000
0000
0000
7C00
0400
0400
0400
0400
0400
0400
0400
0400
0400
FF80
0000
0000
0000
0000
0000
ENDCHAR

STARTCHAR Cd6
ENCODING 214
SWIDTH 1000 0
DWIDTH 10 0
BBX 10 20 0 -4
BITMAP
0000
0000
0000
FE00
0200
0200
0200
0200
0200
7E00
0200
0200
0200
0200
FE00
0200
0200
0000
0000
0000
ENDCHAR

STARTCHAR Cd7
ENCODING 215
SWIDTH 1000 0
DWIDTH 10 0
BBX 10 20 0 -4
BITMAP
0000
0000
7E00
0000
0000
0000
0000
FF00
0100
0100
0200
0200
0200
0400
0400
0800
1000
2000
0000
0000
ENDCHAR

STARTCHAR Cd8
ENCODING 216
SWIDTH 1000 0
DWIDTH 10 0
BBX 10 20 0 -4
BITMAP
0000
0000
0200
4200
4200
4200
4200
4200
4200
4200
4200
0400
0400
0400
0800
0800
1000
2000
0000
0000
ENDCHAR

STARTCHAR Cd9
ENCODING 217
SWIDTH 1000 0
DWIDTH 10 0
BBX 10 20 0 -4
BITMAP
0000
0000
0800
2800
2800
2800
2800
2800
2800
2800
2900
2900
4A00
4A00
4C00
8C00
8800
0000
0000
0000
ENDCHAR

STARTCHAR Cda
ENCODING 218
SWIDTH 1000 0
DWIDTH 10 0
BBX 10 20 0 -4
BITMAP
0000
0000
4000
4000
4000
4000
4000
4000
4000
4100
4200
4200
4400
4400
4800
5000
6000
0000
0000
0000
ENDCHAR

STARTCHAR Cdb
ENCODING 219
SWIDTH 1000 0
DWIDTH 10 0
BBX 10 20 0 -4
BITMAP
0000
0000
0000
FE00
8200
8200
8200
8200
8200
8200
8200
8200
8200
8200
FE00
8200
0000
0000
0000
0000
ENDCHAR

STARTCHAR Cdc
ENCODING 220
SWIDTH 1000 0
DWIDTH 10 0
BBX 10 20 0 -4
BITMAP
0000
0000
0000
FF00
8100
8100
8100
8100
8100
8100
0100
0200
0200
0400
0400
0800
1000
2000
0000
0000
ENDCHAR

STARTCHAR Cdd
ENCODING 221
SWIDTH 1000 0
DWIDTH 10 0
BBX 10 20 0 -4
BITMAP
0000
0000
0000
8000
4000
2100
2100
0100
0100
0100
0200
0200
0400
0800
1000
2000
C000
0000
0000
0000
ENDCHAR

STARTCHAR Cde
ENCODING 222
SWIDTH 1000 0
DWIDTH 10 0
BBX 10 20 0 -4
BITMAP
0000
2000
9000
5000
4000
0000
0000
0000
0000
0000
0000
0000
0000
0000
0000
0000
0000
0000
0000
0000
ENDCHAR

STARTCHAR Cdf
ENCODING 223
SWIDTH 1000 0
DWIDTH 10 0
BBX 10 20 0 -4
BITMAP
0000
4000
A000
4000
0000
0000
0000
0000
0000
0000
0000
0000
0000
0000
0000
0000
0000
0000
0000
0000
ENDCHAR
ENDFONT
